<?xml version="1.0" encoding="UTF-8" standalone="no"?>
<!DOCTYPE svg PUBLIC "-//W3C//DTD SVG 1.1//EN"
 "http://www.w3.org/Graphics/SVG/1.1/DTD/svg11.dtd">
<!-- Generated by graphviz version 2.38.0 (20140413.2041)
 -->
<!-- Title: ink_alert Pages: 1 -->
<svg width="148pt" height="260pt"
 viewBox="0.00 0.00 148.09 260.00" xmlns="http://www.w3.org/2000/svg" xmlns:xlink="http://www.w3.org/1999/xlink">
<g id="graph0" class="graph" transform="scale(1 1) rotate(0) translate(4 256)">
<title>ink_alert</title>
<polygon fill="white" stroke="none" points="-4,4 -4,-256 144.095,-256 144.095,4 -4,4"/>
<!-- stream0 -->
<g id="node1" class="node"><title>stream0</title>
<ellipse fill="none" stroke="black" cx="69.5473" cy="-234" rx="38.9931" ry="18"/>
<text text-anchor="middle" x="69.5473" y="-230.3" font-family="Times,serif" font-size="14.00">stream0</text>
</g>
<!-- from1 -->
<g id="node2" class="node"><title>from1</title>
<ellipse fill="none" stroke="black" cx="69.5473" cy="-162" rx="32.4942" ry="18"/>
<text text-anchor="middle" x="69.5473" y="-158.3" font-family="Times,serif" font-size="14.00">from1</text>
</g>
<!-- stream0&#45;&gt;from1 -->
<g id="edge1" class="edge"><title>stream0&#45;&gt;from1</title>
<path fill="none" stroke="black" d="M69.5473,-215.697C69.5473,-207.983 69.5473,-198.712 69.5473,-190.112"/>
<polygon fill="black" stroke="black" points="73.0474,-190.104 69.5473,-180.104 66.0474,-190.104 73.0474,-190.104"/>
</g>
<!-- groupby2 -->
<g id="node3" class="node"><title>groupby2</title>
<ellipse fill="none" stroke="black" cx="69.5473" cy="-90" rx="44.393" ry="18"/>
<text text-anchor="middle" x="69.5473" y="-86.3" font-family="Times,serif" font-size="14.00">groupby2</text>
</g>
<!-- from1&#45;&gt;groupby2 -->
<g id="edge2" class="edge"><title>from1&#45;&gt;groupby2</title>
<path fill="none" stroke="black" d="M69.5473,-143.697C69.5473,-135.983 69.5473,-126.712 69.5473,-118.112"/>
<polygon fill="black" stroke="black" points="73.0474,-118.104 69.5473,-108.104 66.0474,-118.104 73.0474,-118.104"/>
</g>
<!-- alert4 -->
<g id="node4" class="node"><title>alert4</title>
<ellipse fill="none" stroke="black" cx="30.5473" cy="-18" rx="30.5947" ry="18"/>
<text text-anchor="middle" x="30.5473" y="-14.3" font-family="Times,serif" font-size="14.00">alert4</text>
</g>
<!-- groupby2&#45;&gt;alert4 -->
<g id="edge3" class="edge"><title>groupby2&#45;&gt;alert4</title>
<path fill="none" stroke="black" d="M60.1065,-72.055C55.44,-63.6793 49.7152,-53.4039 44.5506,-44.1341"/>
<polygon fill="black" stroke="black" points="47.5572,-42.3392 39.6326,-35.307 41.4422,-45.7462 47.5572,-42.3392"/>
</g>
<!-- alert3 -->
<g id="node5" class="node"><title>alert3</title>
<ellipse fill="none" stroke="black" cx="109.547" cy="-18" rx="30.5947" ry="18"/>
<text text-anchor="middle" x="109.547" y="-14.3" font-family="Times,serif" font-size="14.00">alert3</text>
</g>
<!-- groupby2&#45;&gt;alert3 -->
<g id="edge4" class="edge"><title>groupby2&#45;&gt;alert3</title>
<path fill="none" stroke="black" d="M79.0267,-72.411C83.809,-64.0421 89.7131,-53.7098 95.0503,-44.3698"/>
<polygon fill="black" stroke="black" points="98.2133,-45.8889 100.136,-35.4699 92.1356,-42.4159 98.2133,-45.8889"/>
</g>
</g>
</svg>
